<!DOCTYPE svg PUBLIC "-//W3C//DTD SVG 1.1//EN" "http://www.w3.org/Graphics/SVG/1.1/DTD/svg11.dtd">
<!-- Uploaded to: SVG Repo, www.svgrepo.com, Transformed by: SVG Repo Mixer Tools -->
<svg width="122px" height="122px" viewBox="-2.88 -2.88 21.76 21.76" fill="none" xmlns="http://www.w3.org/2000/svg" stroke="#000000" stroke-width="0.00016">
<g id="SVGRepo_bgCarrier" stroke-width="0" transform="translate(0.96,0.96), scale(0.88)">
<path transform="translate(-2.88, -2.88), scale(1.36)" fill="#dc2626" d="M9.166.33a2.25 2.25 0 00-2.332 0l-5.25 3.182A2.25 2.25 0 00.5 5.436v5.128a2.25 2.25 0 001.084 1.924l5.25 3.182a2.25 2.25 0 002.332 0l5.25-3.182a2.25 2.25 0 001.084-1.924V5.436a2.25 2.25 0 00-1.084-1.924L9.166.33z" strokewidth="0"/>
</g>
<g id="SVGRepo_tracerCarrier" stroke-linecap="round" stroke-linejoin="round" stroke="#CCCCCC" stroke-width="0.032"/>
<g id="SVGRepo_iconCarrier"> <path fill-rule="evenodd" clip-rule="evenodd" d="M2.5 5.16065C2.5 4.98122 2.59614 4.81555 2.75193 4.72653L7.75193 1.86938C7.90565 1.78155 8.09435 1.78155 8.24807 1.86938L13.2481 4.72653C13.4039 4.81555 13.5 4.98122 13.5 5.16065V10.8394C13.5 11.0188 13.4039 11.1845 13.2481 11.2735L8.24807 14.1306C8.09435 14.2185 7.90565 14.2185 7.75193 14.1306L2.75193 11.2735C2.59614 11.1845 2.5 11.0188 2.5 10.8394V5.16065ZM1 10.8394C1 11.5571 1.38457 12.2198 2.00772 12.5758L7.00772 15.433C7.62259 15.7843 8.37741 15.7843 8.99228 15.433L13.9923 12.5758C14.6154 12.2198 15 11.5571 15 10.8394V5.16065C15 4.44293 14.6154 3.78025 13.9923 3.42416L8.99228 0.567019C8.37741 0.215667 7.62259 0.215667 7.00772 0.567019L2.00772 3.42416C1.38457 3.78025 1 4.44293 1 5.16065V10.8394Z" fill="#000000"/> <path fill-rule="evenodd" clip-rule="evenodd" d="M8 0.270645L1.18226 11.75H14.8177L8 0.270645ZM3.81774 10.25L8 3.20812L12.1823 10.25H3.81774Z" fill="#000000"/> </g>
</svg>